<svg xmlns="http://www.w3.org/2000/svg" viewBox="0 0 48 48"><path fill="#d32f2f" d="M3 10H45V39H3z"/><path fill="#d32f2f" d="M24 31A5 5 0 1 0 24 41A5 5 0 1 0 24 31Z"/><path fill="#4c0808" d="M24 33A3 3 0 1 0 24 39A3 3 0 1 0 24 33Z"/><path fill="#d7ccc8" d="M40 7L25 10 23 10 8 7 6 12 6 36 42 36 42 12z"/><path fill="#bcaaa4" d="M8 33.001L23 33.001 23 36 25 36 25 33.001 40 33 42 36 6 36z"/><path fill="#efebe9" d="M40 7c0 0-15 0-15 3s0 26 0 26c0-3 15-3 15-3V7zM8 7c0 0 15 0 15 3s0 26 0 26c0-3-15-3-15-3V7z"/><path fill="#bcaaa4" d="M23 10H25V36H23z"/></svg>